<svg width="104" height="35" viewBox="0 0 104 35" fill="none" xmlns="http://www.w3.org/2000/svg">
<mask id="mask0_0_1" style="mask-type:luminance" maskUnits="userSpaceOnUse" x="0" y="0" width="32" height="32">
<path d="M0.982002 0.807617H31.019V31.1926H0.982002V0.807617Z" fill="white"/>
</mask>
<g mask="url(#mask0_0_1)">
<mask id="mask1_0_1" style="mask-type:luminance" maskUnits="userSpaceOnUse" x="0" y="0" width="32" height="32">
<path d="M0.982002 0.807617H31.019V31.1926H0.982002V0.807617Z" fill="white"/>
</mask>
<g mask="url(#mask1_0_1)">
<path fill-rule="evenodd" clip-rule="evenodd" d="M16.933 0.807617V5.97162C16.9091 8.80037 17.6336 11.5852 19.033 14.0436C20.4624 16.4867 22.5123 18.5083 24.975 19.9036L29.453 22.4876C29.7751 21.8419 30.0495 21.1734 30.274 20.4876C31.0716 18.0696 31.2378 15.4879 30.757 12.9876C30.0822 13.72 29.2126 14.2448 28.2501 14.5003C27.2876 14.7559 26.2722 14.7317 25.323 14.4306H25.261C24.2739 14.1058 23.4054 13.4955 22.7652 12.677C22.1249 11.8585 21.7418 10.8686 21.6642 9.83233C21.5866 8.79609 21.818 7.76011 22.3292 6.8554C22.8404 5.95068 23.6083 5.21787 24.536 4.74962C24.9007 4.56741 25.2848 4.42686 25.681 4.33062C24.215 3.09511 22.5259 2.15179 20.705 1.55162C19.4845 1.14375 18.2169 0.89372 16.933 0.807617Z" fill="white"/>
</g>
<mask id="mask2_0_1" style="mask-type:luminance" maskUnits="userSpaceOnUse" x="0" y="0" width="32" height="32">
<path d="M0.982002 0.807617H31.019V31.1926H0.982002V0.807617Z" fill="white"/>
</mask>
<g mask="url(#mask2_0_1)">
<path fill-rule="evenodd" clip-rule="evenodd" d="M28.525 24.0665L24.042 21.4865C21.6056 20.0468 18.8299 19.2816 16 19.2695C13.1695 19.2853 10.3939 20.0524 7.957 21.4925L3.474 24.0815C5.33217 26.9009 8.09082 29.0074 11.3 30.0575L11.571 30.1445C11.4746 29.9957 11.3874 29.8411 11.31 29.6815C10.9976 29.0663 10.8102 28.3952 10.7587 27.7071C10.7073 27.0189 10.7926 26.3274 11.01 25.6725C11.4488 24.3498 12.3951 23.2555 13.6407 22.6304C14.8863 22.0054 16.3292 21.9007 17.652 22.3395C18.9748 22.7783 20.069 23.7246 20.6941 24.9702C21.3192 26.2159 21.4238 27.6588 20.985 28.9815C20.8481 29.3956 20.6614 29.7915 20.429 30.1605C23.7518 29.1277 26.6132 26.9739 28.525 24.0665Z" fill="white"/>
</g>
<mask id="mask3_0_1" style="mask-type:luminance" maskUnits="userSpaceOnUse" x="0" y="0" width="32" height="32">
<path d="M0.982002 0.807617H31.019V31.1926H0.982002V0.807617Z" fill="white"/>
</mask>
<g mask="url(#mask3_0_1)">
<path fill-rule="evenodd" clip-rule="evenodd" d="M2.566 22.5016L7.046 19.9126C9.50988 18.5171 11.5601 16.4938 12.988 14.0486C14.3827 11.5868 15.1042 8.80097 15.08 5.97162V0.807617C11.8648 1.01176 8.79955 2.24085 6.334 4.31462C6.474 4.34862 6.614 4.38662 6.754 4.43562C7.52147 4.68216 8.22196 5.10192 8.80127 5.66244C9.38059 6.22296 9.82322 6.90922 10.0949 7.66815C10.3666 8.42708 10.4601 9.23833 10.3682 10.0392C10.2763 10.84 10.0014 11.609 9.56477 12.2866C9.12816 12.9642 8.54154 13.5323 7.85028 13.947C7.15902 14.3617 6.38164 14.6118 5.57827 14.678C4.7749 14.7442 3.96706 14.6248 3.21723 14.3289C2.4674 14.033 1.79567 13.5686 1.254 12.9716C0.631326 16.2061 1.09246 19.5557 2.566 22.5016Z" fill="white"/>
</g>
<mask id="mask4_0_1" style="mask-type:luminance" maskUnits="userSpaceOnUse" x="0" y="0" width="32" height="32">
<path d="M0.982002 0.807617H31.019V31.1926H0.982002V0.807617Z" fill="white"/>
</mask>
<g mask="url(#mask4_0_1)">
<path fill-rule="evenodd" clip-rule="evenodd" d="M25.662 13.0917H25.686C26.6555 13.4075 27.7102 13.331 28.624 12.8787C29.5379 12.4264 30.2382 11.6341 30.575 10.6717V10.6187C30.7345 10.1354 30.797 9.62548 30.7589 9.11804C30.7208 8.6106 30.5828 8.11568 30.353 7.66168C29.9047 6.75152 29.1134 6.05661 28.153 5.72968H28.106C27.1304 5.40911 26.0674 5.48912 25.1508 5.95212C24.2342 6.41512 23.539 7.2232 23.218 8.19868C23.0573 8.68085 22.9941 9.19018 23.0323 9.69699C23.0704 10.2038 23.209 10.698 23.44 11.1507C23.8948 12.0661 24.6938 12.764 25.662 13.0917Z" fill="white"/>
</g>
<mask id="mask5_0_1" style="mask-type:luminance" maskUnits="userSpaceOnUse" x="0" y="0" width="32" height="32">
<path d="M0.982002 0.807617H31.019V31.1926H0.982002V0.807617Z" fill="white"/>
</mask>
<g mask="url(#mask5_0_1)">
<path fill-rule="evenodd" clip-rule="evenodd" d="M3.89 13.0972H3.919C4.88852 13.413 5.94317 13.3365 6.85701 12.8842C7.77085 12.4318 8.47119 11.6396 8.808 10.6772V10.6282C8.96719 10.145 9.02943 9.63518 8.99116 9.12793C8.9529 8.62067 8.81487 8.12596 8.585 7.67216C8.1335 6.7645 7.34338 6.07063 6.385 5.74016H6.339C5.61201 5.50149 4.83063 5.48345 4.0934 5.68831C3.35617 5.89317 2.69612 6.31177 2.19649 6.89129C1.69687 7.47082 1.38005 8.18532 1.286 8.94468C1.19194 9.70404 1.32486 10.4742 1.668 11.1582C2.12328 12.0728 2.92217 12.7699 3.89 13.0972Z" fill="white"/>
</g>
<mask id="mask6_0_1" style="mask-type:luminance" maskUnits="userSpaceOnUse" x="0" y="0" width="32" height="32">
<path d="M0.982002 0.807617H31.019V31.1926H0.982002V0.807617Z" fill="white"/>
</mask>
<g mask="url(#mask6_0_1)">
<path fill-rule="evenodd" clip-rule="evenodd" d="M14.769 30.9899H14.798C15.7679 31.3055 16.8229 31.2287 17.7368 30.7757C18.6507 30.3228 19.3508 29.5299 19.687 28.5669V28.5219C20.0028 27.5524 19.9264 26.4977 19.474 25.5839C19.0217 24.67 18.2294 23.9697 17.267 23.6329H17.218C16.244 23.314 15.1833 23.3937 14.2679 23.8547C13.3525 24.3157 12.6568 25.1205 12.3331 26.0929C12.0094 27.0654 12.0839 28.1265 12.5404 29.0441C12.9969 29.9618 13.7982 30.6614 14.769 30.9899Z" fill="white"/>
</g>
</g>
<path d="M60.47 6.16V6.37C59.72 6.67 59.18 7.87 59.18 8.92V25.24C59.18 26.29 59.72 27.49 60.47 27.79V28H52.43V27.79C53.18 27.49 53.75 26.29 53.75 25.24V16.3H45.92V25.24C45.92 26.29 46.49 27.49 47.24 27.79V28H39.2V27.79C39.95 27.49 40.49 26.29 40.49 25.24V8.92C40.49 7.87 39.95 6.67 39.2 6.37V6.16H47.24V6.37C46.49 6.67 45.92 7.87 45.92 8.92V15.73H53.75V8.92C53.75 7.87 53.18 6.67 52.43 6.37V6.16H60.47ZM73.2519 12.34V12.16H78.0819V12.34C76.8519 12.7 75.9519 14.02 75.5319 15.01L69.8919 28.93L69.3819 30.25C68.2119 33.31 66.2019 34.96 64.2819 34.96C63.4119 34.96 62.4519 34.6 61.7319 33.76L62.6619 31.3H62.8419C63.6519 32.17 64.7319 32.74 65.7519 32.74C67.0119 32.74 68.2119 31.96 68.9619 30.31L69.3519 29.44L63.2619 15.22C62.7519 14.02 62.2119 12.94 61.1319 12.34V12.16H69.6819V12.34C68.6019 12.82 68.0019 13.6 68.7819 15.25L72.0819 22.36L74.8719 15.46C75.3819 14.26 74.5419 12.88 73.2519 12.34ZM94.6093 28.21C88.4593 28.21 85.1593 24.49 85.1593 19.75V8.92C85.1593 7.87 84.6193 6.67 83.8693 6.37V6.16H91.9093V6.37C91.1593 6.67 90.5893 7.87 90.5893 8.92V19.93C90.5893 24.22 91.9693 27.1 95.7793 27.1C99.6793 27.1 101.569 24.28 101.569 20.2V10.03C101.569 8.5 100.969 7.09 100.159 6.37V6.16H103.459V6.37C102.679 7.03 102.049 8.5 102.049 10.03V20.23C102.049 24.79 99.4693 28.21 94.6093 28.21Z" fill="white"/>
</svg>
